<?xml version="1.0" encoding="UTF-8" standalone="no"?><!DOCTYPE svg PUBLIC "-//W3C//DTD SVG 1.1//EN" "http://www.w3.org/Graphics/SVG/1.1/DTD/svg11.dtd"><svg width="100%" height="100%" viewBox="0 0 5000 5000" version="1.1" xmlns="http://www.w3.org/2000/svg" xmlns:xlink="http://www.w3.org/1999/xlink" xml:space="preserve" xmlns:serif="http://www.serif.com/" style="fill-rule:evenodd;clip-rule:evenodd;stroke-linejoin:round;stroke-miterlimit:2;"><g id="Logo-Color" serif:id="Logo Color"><path d="M3968.86,808.766l7.975,7.132l7.946,7.174l7.9,7.219l7.861,7.264l7.814,7.296l7.786,7.345l7.744,7.383l7.712,7.433l7.663,7.452l7.622,7.509l7.58,7.542l7.545,7.589l7.496,7.617l7.471,7.663l7.424,7.693l7.392,7.745l-190.595,104.901l-7.467,-7.822l-7.504,-7.773l-7.537,-7.739l-7.574,-7.692l-7.622,-7.665l-7.66,-7.616l-7.701,-7.589l-7.735,-7.532l-7.786,-7.504l-7.824,-7.458l-7.86,-7.414l-7.901,-7.368l-7.945,-7.34l-7.975,-7.297l-8.027,-7.247l-8.058,-7.202l-1485.41,0l3.696,-7.588l3.732,-7.571l3.767,-7.565l3.795,-7.552l3.826,-7.556l3.855,-7.527l3.898,-7.532l3.926,-7.519l3.955,-7.514l3.987,-7.504l4.021,-7.494l4.052,-7.481l4.081,-7.481l4.128,-7.462l4.147,-7.456l4.185,-7.444l-1168.17,-0l217.744,-102.49l1156.49,-0l-4.147,7.363l-4.108,7.376l-4.082,7.391l-4.039,7.406l-4.014,7.41l-3.98,7.421l-3.949,7.423l-3.911,7.444l-3.893,7.438l-3.852,7.457l-3.821,7.461l-3.786,7.472l-3.761,7.481l-3.734,7.489l-3.691,7.491l-3.662,7.514l1470.57,0Zm450.466,2381.41l-2.491,4.797l-2.501,4.809l-2.512,4.792l-2.514,4.79l-2.55,4.774l-2.534,4.777l-2.561,4.762l-2.573,4.764l-2.596,4.744l-2.591,4.749l-2.617,4.726l-2.619,4.729l-2.639,4.715l-2.648,4.713l-2.655,4.701l-2.676,4.697l-187.703,128.525l2.704,-4.749l2.689,-4.744l2.667,-4.767l2.665,-4.754l2.643,-4.782l2.642,-4.772l2.629,-4.797l2.614,-4.795l2.595,-4.81l2.585,-4.814l2.573,-4.825l2.568,-4.819l2.543,-4.843l2.534,-4.834l2.525,-4.851l2.516,-4.849l-1876.92,0l-4.377,-6.525l-4.368,-6.653l-4.372,-6.799l-4.364,-6.922l-4.367,-7.071l-4.36,-7.189l-4.349,-7.335l-4.349,-7.457l-4.341,-7.594l-4.334,-7.725l-4.326,-7.847l-4.311,-7.97l-4.307,-8.111l-4.298,-8.224l-4.278,-8.355l-4.26,-8.468l-1759.85,0l224.349,-126.551l1742.25,0l4.222,8.385l4.236,8.27l4.247,8.143l4.269,8.021l4.27,7.896l4.287,7.771l4.288,7.641l4.298,7.523l4.298,7.381l4.311,7.26l4.316,7.124l4.325,6.997l4.316,6.855l4.331,6.728l4.326,6.587l4.336,6.455l1858.15,0Zm136.885,-340.203l-2.26,7.537l-2.286,7.519l-2.317,7.514l-2.342,7.504l-2.374,7.481l-2.404,7.471l-2.435,7.457l-2.449,7.456l-2.488,7.43l-2.53,7.419l-2.553,7.411l-2.562,7.4l-2.61,7.383l-2.624,7.368l-2.66,7.358l-2.686,7.353l-186.301,125.516l2.708,-7.419l2.694,-7.433l2.653,-7.449l2.632,-7.451l2.591,-7.478l2.577,-7.479l2.548,-7.505l2.516,-7.504l2.474,-7.528l2.458,-7.532l2.432,-7.547l2.396,-7.56l2.366,-7.574l2.342,-7.589l2.312,-7.598l2.276,-7.614l-2176.53,0l-2.45,-7.212l-2.43,-7.245l-2.422,-7.297l-2.402,-7.336l-2.393,-7.381l-2.381,-7.415l-2.368,-7.462l-2.347,-7.485l-2.346,-7.547l-2.319,-7.575l-2.307,-7.625l-2.286,-7.647l-2.285,-7.701l-2.256,-7.735l-2.248,-7.771l-2.224,-7.801l-1743.34,0l225.474,-123.118l1725.91,0l2.206,7.72l2.225,7.697l2.232,7.664l2.263,7.622l2.26,7.576l2.281,7.545l2.304,7.491l2.317,7.476l2.324,7.414l2.341,7.381l2.355,7.345l2.375,7.307l2.379,7.26l2.398,7.227l2.407,7.174l2.422,7.137l2154.77,0Zm68.978,-340.201l-0.856,7.499l-0.884,7.504l-0.917,7.48l-0.936,7.486l-0.964,7.466l-0.991,7.463l-1.021,7.455l-1.053,7.448l-1.073,7.439l-1.11,7.425l-1.138,7.419l-1.156,7.415l-1.199,7.396l-1.208,7.401l-1.242,7.381l-1.264,7.383l-185.381,122.083l1.279,-7.458l1.256,-7.455l1.217,-7.473l1.214,-7.471l1.167,-7.489l1.151,-7.496l1.114,-7.499l1.095,-7.509l1.063,-7.527l1.025,-7.532l1.002,-7.542l0.977,-7.537l0.941,-7.566l0.927,-7.555l0.889,-7.576l0.869,-7.575l-2336.96,0l-1.43,-7.368l-1.42,-7.376l-1.41,-7.406l-1.391,-7.42l-1.379,-7.452l-1.353,-7.461l-1.345,-7.486l-1.321,-7.504l-1.312,-7.527l-1.294,-7.547l-1.278,-7.566l-1.261,-7.583l-1.241,-7.612l-1.232,-7.627l-1.208,-7.645l-1.189,-7.66l-1716.79,0l225.953,-119.681l1699.63,0l1.176,7.584l1.199,7.565l1.213,7.556l1.236,7.534l1.242,7.512l1.264,7.491l1.284,7.47l1.299,7.453l1.307,7.424l1.335,7.415l1.339,7.391l1.365,7.373l1.371,7.345l1.397,7.33l1.407,7.301l1.424,7.294l2313.59,-0Zm8.529,-340.199l0.431,7.377l0.405,7.401l0.381,7.406l0.367,7.404l0.328,7.415l0.307,7.424l0.272,7.435l0.264,7.447l0.216,7.433l0.202,7.449l0.156,7.461l0.149,7.463l0.105,7.475l0.089,7.481l0.042,7.489l0.023,7.496l-185.079,118.646l-0.033,-7.574l-0.042,-7.562l-0.089,-7.555l-0.103,-7.551l-0.146,-7.537l-0.166,-7.537l-0.197,-7.524l-0.221,-7.512l-0.264,-7.519l-0.281,-7.509l-0.306,-7.499l-0.333,-7.491l-0.367,-7.484l-0.386,-7.478l-0.413,-7.47l-0.428,-7.458l-2392.78,0l-0.592,-7.433l-0.574,-7.442l-0.551,-7.453l-0.526,-7.462l-0.527,-7.481l-0.498,-7.481l-0.479,-7.504l-0.461,-7.504l-0.456,-7.527l-0.423,-7.532l-0.415,-7.553l-0.39,-7.54l-0.376,-7.575l-0.352,-7.576l-0.338,-7.588l-0.312,-7.594l-1671.35,0l225.83,-116.234l1654.64,-0l0.305,7.509l0.34,7.517l0.352,7.491l0.377,7.499l0.381,7.476l0.403,7.467l0.423,7.461l0.448,7.448l0.456,7.434l0.479,7.43l0.49,7.409l0.516,7.401l0.527,7.386l0.551,7.378l0.564,7.368l0.587,7.363l2368.85,0Zm-50.518,-340.203l1.755,7.353l1.72,7.378l1.689,7.381l1.669,7.402l1.635,7.401l1.609,7.419l1.579,7.424l1.561,7.438l1.524,7.443l1.5,7.462l1.471,7.461l1.44,7.486l1.415,7.481l1.391,7.499l1.35,7.505l1.344,7.523l-185.379,115.214l-1.355,-7.599l-1.372,-7.583l-1.402,-7.576l-1.429,-7.56l-1.458,-7.556l-1.48,-7.542l-1.519,-7.527l-1.538,-7.522l-1.576,-7.514l-1.594,-7.504l-1.63,-7.491l-1.651,-7.476l-1.688,-7.476l-1.702,-7.452l-1.74,-7.458l-1.768,-7.424l-2349.88,-0l0.248,-7.484l0.277,-7.476l0.297,-7.491l0.321,-7.486l0.328,-7.504l0.353,-7.489l0.372,-7.509l0.403,-7.509l0.405,-7.523l0.433,-7.523l0.451,-7.532l0.479,-7.532l0.489,-7.547l0.518,-7.537l0.536,-7.551l0.564,-7.552l-1603.9,-0l225.097,-112.802l1587.86,-0l-0.559,7.476l-0.528,7.472l-0.507,7.461l-0.485,7.471l-0.474,7.452l-0.446,7.458l-0.433,7.447l-0.4,7.453l-0.395,7.434l-0.371,7.428l-0.354,7.42l-0.323,7.434l-0.315,7.409l-0.292,7.411l-0.277,7.405l-0.251,7.406l2326.39,0Zm-115.557,-340.203l3.239,7.325l3.227,7.34l3.188,7.359l3.173,7.376l3.131,7.383l3.112,7.41l3.072,7.414l3.065,7.443l3.019,7.439l2.986,7.471l2.957,7.466l2.943,7.501l2.896,7.504l2.878,7.522l2.835,7.547l2.816,7.555l-186.311,111.778l-2.845,-7.635l-2.868,-7.617l-2.896,-7.604l-2.929,-7.578l-2.971,-7.571l-2.986,-7.547l-3.024,-7.545l-3.042,-7.519l-3.093,-7.509l-3.109,-7.494l-3.139,-7.481l-3.165,-7.458l-3.203,-7.457l-3.22,-7.433l-3.259,-7.411l-3.276,-7.404l-2200.95,-0l1.181,-7.514l1.212,-7.509l1.228,-7.509l1.26,-7.509l1.274,-7.523l1.307,-7.509l1.312,-7.519l1.349,-7.509l1.358,-7.517l1.397,-7.524l1.402,-7.522l1.448,-7.509l1.448,-7.519l1.486,-7.517l1.499,-7.519l1.533,-7.514l-1509.07,-0l223.682,-109.366l1493.99,0l-1.518,7.435l-1.491,7.447l-1.471,7.438l-1.438,7.444l-1.425,7.438l-1.392,7.443l-1.388,7.447l-1.34,7.448l-1.336,7.429l-1.302,7.44l-1.292,7.437l-1.256,7.443l-1.255,7.439l-1.208,7.433l-1.204,7.429l-1.166,7.448l2178.94,-0Zm-193.975,-340.208l5.126,7.26l5.095,7.298l5.069,7.307l5.041,7.348l5.003,7.363l4.969,7.386l4.938,7.406l4.908,7.43l4.867,7.452l4.842,7.481l4.802,7.489l4.777,7.532l4.734,7.532l4.716,7.576l4.679,7.583l4.644,7.617l-187.965,108.341l-4.697,-7.697l-4.721,-7.66l-4.764,-7.65l-4.78,-7.617l-4.834,-7.601l-4.848,-7.566l-4.89,-7.552l-4.908,-7.527l-4.966,-7.509l-4.988,-7.481l-5.018,-7.461l-5.054,-7.439l-5.092,-7.42l-5.111,-7.377l-5.153,-7.372l-5.172,-7.33l-1927.1,0l2.281,-7.552l2.309,-7.537l2.336,-7.542l2.365,-7.527l2.38,-7.528l2.417,-7.523l2.445,-7.523l2.468,-7.519l2.486,-7.517l2.522,-7.504l2.537,-7.509l2.578,-7.499l2.591,-7.501l2.637,-7.494l2.653,-7.49l2.683,-7.476l-1375.31,-0l221.386,-105.937l1361.56,-0l-2.661,7.404l-2.624,7.416l-2.614,7.423l-2.558,7.421l-2.553,7.42l-2.516,7.437l-2.496,7.43l-2.464,7.447l-2.449,7.438l-2.412,7.448l-2.394,7.444l-2.355,7.461l-2.347,7.452l-2.304,7.466l-2.289,7.463l-2.258,7.466l1907.83,-0Zm-799.988,-459.88l-1.265,-0.766l-1.256,-0.751l-1.251,-0.753l-1.254,-0.747l-1.265,-0.748l-1.251,-0.753l-1.26,-0.751l-1.246,-0.743l-3.366,-2.004l-2.742,-1.622l-1.637,-0.972l-1.63,-0.951l-1.632,-0.964l-1.628,-0.95l-1.635,-0.964l-1.636,-0.948l-1.632,-0.956l-1.637,-0.94l-0.036,-0.029l-1.017,-0.587l-1.631,-0.95l-1.637,-0.941l-1.635,-0.943l-1.627,-0.936l-1.631,-0.94l-1.637,-0.928l-1.632,-0.945l-1.626,-0.921l-0.678,-0.39l-2.284,-1.293l-1.576,-0.898l-1.574,-0.899l-1.576,-0.889l-3.165,-1.781l-1.584,-0.884l-4.021,-2.256l-1.489,-0.823l-1.468,-0.828l-1.485,-0.822l-1.473,-0.815l-1.489,-0.827l-1.471,-0.808l-1.482,-0.815l-1.476,-0.807l-3.244,-1.784l-10.087,-5.477l-3.45,-1.866l-3.103,-1.655l-11.115,-5.915l-3.127,-1.637l-6.932,-3.629l-3.473,-1.805l-0.118,-0.062l-6.273,-3.226l-0.601,-0.31l-3.485,-1.781l-3.498,-1.787l-0.954,-0.479l-5.868,-2.973l-0.198,-0.099l-3.503,-1.758l-4.903,-2.45l-8.949,-4.424l-6.915,-3.385l-7.467,-3.611l-3.55,-1.712l-0.997,-0.48l-5.656,-2.698l-5.651,-2.671l-5.666,-2.66l-5.675,-2.643l-5.694,-2.629l-5.69,-2.609l-5.707,-2.596l-5.705,-2.576l-3.606,-1.617l-23.956,-10.528l-24.106,-10.228l-24.276,-9.929l-24.426,-9.635l-24.585,-9.332l-24.728,-9.023l-24.883,-8.722l-25.023,-8.398l-25.172,-8.111l-25.316,-7.781l-25.451,-7.471l-25.587,-7.142l-25.733,-6.837l-25.846,-6.508l-25.997,-6.182l-26.105,-5.85l-26.251,-5.538l-26.364,-5.19l-26.479,-4.862l-26.604,-4.523l-26.72,-4.195l-26.838,-3.847l-26.948,-3.498l-27.048,-3.15l-27.173,-2.816l-27.256,-2.454l-27.379,-2.106l-27.465,-1.75l-27.566,-1.397l-27.661,-1.03l-27.755,-0.672l-27.84,-0.3l-0.574,0l-1.72,-0.01l-0.428,0l-1.876,-0.013l-1.279,-0l-1.016,-0.015l-1.152,0l-1.161,-0.005l-36.553,0.31l-36.397,0.941l-36.236,1.561l-36.064,2.186l-35.899,2.793l-35.715,3.404l-35.542,3.997l-35.343,4.603l-35.17,5.182l-34.959,5.779l-34.755,6.356l-34.549,6.93l-34.339,7.496l-34.111,8.068l-33.891,8.623l-33.657,9.183l-33.435,9.718l-33.181,10.27l-32.95,10.804l-32.686,11.351l-32.445,11.863l-32.169,12.389l-31.902,12.906l-31.63,13.429l-31.366,13.922l-31.069,14.431l214.395,-100.503l30.751,-14.285l31.059,-13.781l31.305,-13.291l31.588,-12.785l31.854,-12.258l32.114,-11.75l32.364,-11.233l32.616,-10.696l32.851,-10.166l33.101,-9.624l33.319,-9.094l33.552,-8.533l33.773,-7.99l33.999,-7.414l34.193,-6.861l34.416,-6.29l34.601,-5.722l34.823,-5.134l34.995,-4.556l35.18,-3.965l35.357,-3.365l35.543,-2.765l35.7,-2.163l35.875,-1.548l36.031,-0.93l36.191,-0.31l1.151,0.01l1.151,-0l0.997,0.013l1.279,-0l1.844,0.01l0.418,-0l1.707,0.013l0.569,0l27.563,0.297l27.472,0.662l27.383,1.022l27.296,1.386l27.19,1.73l27.096,2.089l26.984,2.435l26.899,2.778l26.787,3.118l26.674,3.47l26.566,3.804l26.458,4.151l26.333,4.481l26.218,4.815l26.101,5.134l25.991,5.482l25.848,5.794l25.728,6.12l25.597,6.443l25.474,6.76l25.324,7.077l25.202,7.396l25.06,7.711l24.921,8.027l24.769,8.316l24.637,8.634l24.479,8.929l24.342,9.244l24.181,9.529l24.036,9.833l23.862,10.126l23.716,10.42l3.573,1.604l5.647,2.543l5.643,2.573l5.637,2.586l5.633,2.604l5.623,2.619l5.605,2.624l5.6,2.652l5.6,2.671l0.992,0.474l3.508,1.692l7.396,3.575l6.846,3.357l8.852,4.382l4.854,2.425l3.475,1.735l0.197,0.1l5.805,2.942l0.941,0.476l3.47,1.764l3.457,1.766l0.582,0.302l6.217,3.196l0.108,0.062l3.446,1.791l6.859,3.588l3.099,1.622l10.999,5.854l3.078,1.64l3.414,1.853l9.987,5.417l3.211,1.764l1.458,0.802l1.476,0.805l1.453,0.804l1.477,0.813l1.453,0.805l1.466,0.817l2.929,1.637l2.427,1.364l1.556,0.869l1.566,0.874l1.56,0.876l1.571,0.887l3.122,1.769l1.558,0.889l2.26,1.284l0.16,0.094l0.512,0.285l1.614,0.923l1.612,0.93l1.623,0.917l1.617,0.931l1.607,0.932l1.619,0.931l1.621,0.93l1.613,0.941l1.006,0.584l0.038,0.023l1.622,0.935l1.617,0.949l0.584,0.335c-63.119,43.369 -169.761,116.36 -169.761,116.36" style="fill:#231f20;"/><path d="M4232.04,3317.93l187.288,-127.751l-2.491,4.797l-2.516,4.819l-2.487,4.777l-2.539,4.795l-2.54,4.777l-2.534,4.778l-2.561,4.748l-2.583,4.778l-2.586,4.73l-2.581,4.749l-2.632,4.731l-2.606,4.729l-2.651,4.725l-2.634,4.708l-2.675,4.706l-2.676,4.682l-187.703,128.535l2.724,-4.754l2.675,-4.749l2.676,-4.753l2.651,-4.753l2.657,-4.797l2.627,-4.777l2.629,-4.772l2.629,-4.8l2.586,-4.82l2.581,-4.801l2.586,-4.841l2.563,-4.797l2.534,-4.847l2.538,-4.844l2.54,-4.843l2.511,-4.865Zm138.272,-343.645l185.901,-124.312l-2.26,7.54l-2.281,7.524l-4.659,15.018l-2.381,7.471l-2.397,7.476l-2.445,7.452l-2.444,7.471l-2.493,7.43l-2.538,7.404l-2.535,7.406l-2.563,7.401l-2.604,7.382l-2.634,7.383l-5.351,14.716l-186.296,125.516l5.397,-14.859l2.657,-7.452l2.628,-7.448l2.583,-7.476l2.585,-7.494l2.533,-7.499l2.54,-7.496l2.468,-7.522l4.89,-15.084l2.398,-7.565l2.356,-7.571l2.352,-7.588l2.307,-7.612l2.286,-7.612Zm69.662,-343.617l185.212,-120.898l-0.851,7.494l-0.881,7.524l-0.92,7.47l-0.946,7.476l-0.969,7.471l-0.991,7.476l-1.016,7.452l-1.04,7.448l-1.081,7.429l-1.11,7.43l-1.128,7.429l-1.176,7.4l-1.179,7.406l-1.223,7.404l-1.245,7.383l-1.266,7.381l-185.376,122.075l1.294,-7.448l1.246,-7.475l1.222,-7.476l1.2,-7.448l1.176,-7.499l1.151,-7.496l1.109,-7.499l1.105,-7.519l1.063,-7.522l1.015,-7.519l1.017,-7.542l0.967,-7.545l0.946,-7.566l0.922,-7.565l0.879,-7.566l0.874,-7.565Zm193.749,-461.083l-185.12,117.438l0.413,7.453l0.418,7.47l0.391,7.478l0.372,7.494l0.318,7.476l0.325,7.499l0.277,7.519l0.254,7.519l0.231,7.499l0.184,7.542l0.182,7.522l0.141,7.542l0.09,7.542l0.094,7.564l0.047,7.57l0.048,7.566l185.069,-118.638l-0.018,-7.499l-0.048,-7.494l-0.093,-7.476l-0.113,-7.475l-0.141,-7.473l-0.161,-7.453l-0.206,-7.447l-0.212,-7.428l-0.249,-7.452l-0.278,-7.43l-0.301,-7.424l-0.348,-7.43l-0.366,-7.404l-0.372,-7.406l-0.413,-7.405l-0.415,-7.359Zm-50.521,-340.202l-185.624,114l1.753,7.424l1.75,7.453l1.707,7.452l1.688,7.471l1.636,7.476l1.635,7.496l1.594,7.522l1.566,7.496l1.548,7.522l1.522,7.542l1.477,7.542l1.453,7.546l1.429,7.565l1.407,7.566l1.363,7.588l1.359,7.589l185.376,-115.199l-1.34,-7.519l-1.336,-7.523l-1.406,-7.495l-1.41,-7.476l-1.43,-7.494l-1.476,-7.453l-1.5,-7.452l-1.524,-7.448l-1.566,-7.452l-1.594,-7.43l-1.589,-7.404l-1.64,-7.401l-1.661,-7.407l-1.707,-7.381l-1.706,-7.358l-1.754,-7.358Zm-115.567,-340.208l-186.781,110.565l3.273,7.404l3.254,7.406l3.206,7.429l3.207,7.471l3.16,7.453l3.159,7.476l3.094,7.494l3.088,7.519l3.047,7.522l3.019,7.542l3.001,7.542l2.952,7.571l2.93,7.588l2.904,7.589l2.888,7.612l2.835,7.636l186.298,-111.764l-2.817,-7.57l-2.836,-7.542l-2.858,-7.517l-2.906,-7.499l-2.934,-7.496l-2.971,-7.476l-2.978,-7.471l-3.022,-7.429l-3.07,-7.453l-3.067,-7.404l-3.112,-7.425l-3.141,-7.382l-3.158,-7.382l-3.185,-7.358l-3.23,-7.34l-3.249,-7.311Zm-193.98,-340.203l-188.741,107.127l5.167,7.335l5.167,7.381l5.097,7.359l5.097,7.429l5.054,7.424l5.008,7.476l5.003,7.476l4.961,7.519l4.913,7.517l4.89,7.547l4.843,7.566l4.824,7.611l4.795,7.614l4.754,7.658l4.731,7.66l4.705,7.678l187.957,-108.327l-4.659,-7.612l-4.66,-7.588l-4.73,-7.566l-4.729,-7.542l-4.777,-7.522l-4.797,-7.496l-4.842,-7.476l-4.867,-7.452l-4.913,-7.448l-4.938,-7.381l-4.959,-7.406l-5.008,-7.358l-5.051,-7.358l-5.054,-7.289l-5.097,-7.314l-5.144,-7.242Zm-304.798,-340.207l7.985,7.127l7.936,7.176l7.885,7.222l7.866,7.264l7.824,7.288l7.796,7.363l7.724,7.376l7.732,7.43l7.658,7.452l7.613,7.519l7.589,7.546l7.54,7.565l7.501,7.637l7.471,7.658l7.429,7.678l7.382,7.755l-190.585,104.911l-7.477,-7.819l-7.494,-7.776l-7.547,-7.749l-7.564,-7.707l-7.637,-7.66l-7.66,-7.611l-7.701,-7.589l-7.73,-7.519l-7.796,-7.522l-7.819,-7.448l-7.865,-7.406l-7.891,-7.381l-7.937,-7.335l-7.978,-7.293l-8.032,-7.241l-8.048,-7.222l191.83,-103.689Zm-495.175,-119.678l-1.265,-0.761l-1.269,-0.756l-1.246,-0.763l-1.247,-0.738l-1.269,-0.762l-1.246,-0.738l-1.27,-0.761l-1.246,-0.738l-3.366,-2.007l-2.746,-1.614l-1.636,-0.969l-1.614,-0.972l-1.64,-0.946l-1.636,-0.968l-1.637,-0.946l-1.617,-0.945l-1.636,-0.969l-1.683,-0.969l-1.015,-0.577l-1.643,-0.945l-1.612,-0.946l-1.635,-0.944l-1.642,-0.945l-1.636,-0.95l-1.612,-0.921l-1.642,-0.945l-1.636,-0.923l-0.507,-0.277l-0.856,-0.507l-3.183,-1.802l-1.566,-0.874l-1.571,-0.899l-1.589,-0.902l-1.571,-0.874l-1.594,-0.879l-1.566,-0.899l-2.445,-1.359l-1.499,-0.831l-1.453,-0.833l-1.5,-0.827l-1.476,-0.81l-1.476,-0.831l-1.476,-0.804l-1.477,-0.81l-4.73,-2.586l-10.082,-5.487l-3.46,-1.871l-3.088,-1.635l-11.12,-5.93l-3.137,-1.636l-6.922,-3.62l-3.483,-1.802l-0.113,-0.07l-6.277,-3.231l-0.597,-0.295l-3.485,-1.801l-3.506,-1.777l-0.946,-0.484l-5.858,-2.978l-0.207,-0.089l-3.509,-1.753l-4.89,-2.445l-8.952,-4.429l-6.92,-3.395l-7.472,-3.596l-3.53,-1.731l-1.017,-0.461l-5.651,-2.698l-5.651,-2.676l-5.676,-2.675l-5.67,-2.633l-5.676,-2.629l-5.698,-2.604l-5.699,-2.611l-5.722,-2.558l-3.597,-1.617l-23.946,-10.541l-24.106,-10.218l-24.291,-9.944l-24.426,-9.615l-24.59,-9.342l-24.731,-9.023l-24.865,-8.717l-25.033,-8.398l-25.164,-8.121l-25.329,-7.771l-25.441,-7.476l-25.582,-7.152l-25.748,-6.827l-25.832,-6.508l-26.001,-6.178l-26.11,-5.862l-26.254,-5.535l-26.364,-5.19l-26.481,-4.867l-26.599,-4.523l-26.715,-4.175l-26.848,-3.852l-26.946,-3.506l-27.037,-3.137l-27.171,-2.816l-27.266,-2.469l-27.384,-2.098l-27.45,-1.753l-27.566,-1.405l-27.657,-1.017l-27.774,-0.667l-27.82,-0.302l-0.579,0l-1.73,-0.023l-3.574,0l-1.015,-0.023l-2.304,0l-36.567,0.3l-36.402,0.946l-36.236,1.571l-36.054,2.191l-35.894,2.765l-35.734,3.417l-35.523,3.987l-35.362,4.618l-35.156,5.167l-34.972,5.789l-34.742,6.366l-34.554,6.92l-34.324,7.496l-34.116,8.078l-33.911,8.622l-33.637,9.182l-33.445,9.715l-33.171,10.265l-32.965,10.794l-32.686,11.351l-32.435,11.876l-32.179,12.391l-31.907,12.891l-31.625,13.429l-31.369,13.932l-31.076,14.416l214.42,-100.483l30.749,-14.28l31.046,-13.791l31.306,-13.288l31.577,-12.778l31.861,-12.273l32.132,-11.745l32.339,-11.233l32.622,-10.701l32.87,-10.151l33.101,-9.644l33.312,-9.088l33.539,-8.534l33.773,-7.985l33.999,-7.423l34.211,-6.852l34.418,-6.299l34.601,-5.723l34.808,-5.12l34.995,-4.565l35.18,-3.97l35.362,-3.342l35.546,-2.77l35.687,-2.166l35.895,-1.548l36.007,-0.945l36.195,-0.3l2.309,-0l0.992,0.023l3.549,-0l1.707,0.023l0.579,0l27.543,0.302l27.473,0.667l27.407,1.015l27.289,1.383l27.173,1.73l27.105,2.102l26.989,2.422l26.894,2.788l26.784,3.117l26.668,3.461l26.575,3.804l26.458,4.151l26.343,4.476l26.205,4.82l26.113,5.144l25.974,5.468l25.859,5.793l25.72,6.135l25.605,6.433l25.466,6.76l25.329,7.082l25.193,7.382l25.074,7.73l24.911,8.025l24.779,8.303l24.632,8.629l24.479,8.952l24.337,9.226l24.172,9.526l24.04,9.849l23.872,10.128l23.716,10.405l3.573,1.613l5.652,2.539l5.628,2.581l5.652,2.586l5.628,2.583l5.633,2.632l5.604,2.629l5.581,2.651l5.605,2.652l0.992,0.484l3.508,1.707l7.404,3.555l6.851,3.367l8.836,4.382l4.867,2.42l3.46,1.732l0.207,0.116l5.815,2.929l0.923,0.485l3.483,1.755l3.46,1.776l0.574,0.297l6.207,3.206l0.113,0.047l3.46,1.801l6.855,3.573l3.09,1.642l11.003,5.834l3.07,1.66l3.437,1.848l9.962,5.421l3.231,1.75l1.453,0.807l1.476,0.81l1.453,0.809l1.477,0.803l1.453,0.81l1.453,0.807l1.476,0.828l1.453,0.809l2.425,1.364l1.566,0.874l1.571,0.874l1.542,0.879l1.594,0.876l1.546,0.902l1.566,0.875l1.548,0.899l1.594,0.879l0.827,0.484l0.531,0.3l1.612,0.923l1.594,0.92l1.637,0.922l3.23,1.848l1.617,0.946l1.613,0.92l1.613,0.946l0.992,0.579l0.047,0.023l1.617,0.945l1.637,0.944l0.577,0.325c-63.117,43.389 -169.759,116.375 -169.759,116.375Z" style="fill:#b3ddc0;"/><path d="M3777.02,912.465c43.117,38.33 84.512,78.484 124.171,120.258l-2987.47,0c83.429,-87.871 174.678,-168.443 272.773,-240.499l1168.17,-0c-22.399,39.688 -43.399,79.79 -63.056,120.241l1485.41,0Zm-303.34,-223.382l-2132.44,0c310.482,-187.278 675.55,-295.29 1066.22,-295.29l1.166,0.01l1.157,0l1.006,0.01l1.298,-0l1.857,0.013l0.428,0l1.72,0.01l0.574,0c297.492,1.33 579.932,65.219 834.537,179.005l3.606,1.617c15.249,6.851 30.393,13.884 45.439,21.082l1.002,0.485l3.55,1.707l7.471,3.611l6.911,3.385l8.949,4.429l4.903,2.45l3.503,1.753l0.198,0.099l5.868,2.973l0.949,0.479l3.503,1.787l3.489,1.781l0.597,0.305l6.273,3.231l0.113,0.062l3.478,1.81l6.932,3.62l3.127,1.641l11.115,5.91l3.108,1.66l3.445,1.866l10.087,5.477l3.244,1.784c3.95,2.167 7.899,4.344 11.833,6.545l2.445,1.372c4.218,2.36 8.442,4.74 12.635,7.132l0.7,0.396l0.673,0.39c4.359,2.483 8.717,4.985 13.061,7.504l1.017,0.587l0.036,0.024c4.364,2.534 8.728,5.089 13.067,7.65l2.742,1.627l3.361,2.004c3.357,1.998 6.704,3.987 10.053,6.007Zm690.233,687.281l-3512.9,-0c51.199,-84.351 108.435,-164.73 171.186,-240.5l1375.31,-0c-14.367,39.905 -27.566,80.006 -39.683,120.241l1927.09,0c27.737,39.096 54.081,79.202 79.001,120.259Zm165.956,343.64l-3844.82,-0c30.59,-82.846 66.564,-163.141 107.47,-240.505l1509.07,-0c-8.199,40.108 -15.413,80.205 -21.694,120.242l2200.95,-0c17.584,39.457 33.984,79.526 49.025,120.263Zm92.604,343.635l-4030.02,-0c14.355,-81.967 33.75,-162.229 57.81,-240.5l1603.9,-0c-3.009,40.31 -5.144,80.403 -6.469,120.242l2349.88,-0c9.512,39.649 17.801,79.747 24.902,120.258Zm29.903,343.64l-4089.83,-0c0.028,-81.393 5.059,-161.635 14.655,-240.5l1671.35,0c1.653,40.549 4.103,80.657 7.273,120.24l2392.78,0c2.407,39.792 3.762,79.875 3.775,120.26Zm-29.58,343.64l-4030.67,-0c-13.724,-78.704 -22.807,-158.964 -26.964,-240.5l1716.79,0c6.323,40.939 13.381,81.046 21.069,120.24l2336.96,0c-4.523,40.456 -10.259,80.557 -17.186,120.26Zm-92.466,343.64l-3845.74,0c-28.747,-78.037 -52.737,-158.321 -71.625,-240.505l1743.34,0c11.853,41.772 24.398,81.911 37.464,120.24l2176.54,0c-12.079,40.639 -25.418,80.736 -39.98,120.265Zm-139.984,300.185l-3565.78,0c-36.379,-63.62 -69.339,-129.394 -98.664,-197.05l1759.84,0c22.748,45.539 46.045,85.852 69.371,120.24l1876.92,0c-13.358,25.928 -27.243,51.548 -41.692,76.81Z" style="fill:#66c18c;"/><path d="M1019.49,4645.67l-90.472,0l-81.244,-121.154l-14.693,20.441l0,100.713l-74.882,0l-0,-298.06l74.882,-0l0,132.574l95.339,-132.574l86.713,-0l-106.323,138.292l110.68,159.768Zm614.186,0l-199.054,0l0,-298.06l74.878,-0l0,241.196l124.176,0l0,56.864Zm394.481,0l100.714,-298.06l81.662,-0l100.713,298.06l-77.069,0l-18.731,-60.874l-93.538,-0l-18.663,60.874l-75.088,0Zm760.873,0l-0,-241.196l-88.075,-0l0,-56.864l251.046,-0l0,56.864l-88.071,-0l0,241.196l-74.9,0Zm584.723,0l0,-298.06l201.568,-0l0,56.864l-127.082,-0l0,52.271l117.115,-0l0,56.84l-117.115,0l0,75.221l127.082,0l0,56.864l-201.568,0Zm898.562,0l-72.107,0l-114.858,-207.795l0,207.795l-68.463,0l-0,-298.06l91.902,-0l95.04,170.748l-0,-170.748l68.486,-0l0,298.06Zm-2073.2,-114.923l-30.402,-98.203l-30.474,98.203l60.876,-0Zm-385.959,-426.917c-62.312,-0 -110.24,-15.059 -143.785,-45.176c-33.545,-30.118 -50.317,-74.152 -50.317,-132.102l-0,-296.295l116.524,-0l-0,289.44c-0,32.195 6.075,56.185 18.226,71.971c12.151,15.786 31.935,23.679 59.352,23.679c26.795,-0 46.475,-7.582 59.041,-22.744c12.567,-15.163 18.85,-39.465 18.85,-72.906l-0,-289.44l116.524,-0l-0,295.983c-0,57.12 -16.357,100.998 -49.071,131.635c-32.714,30.636 -81.162,45.955 -145.344,45.955Zm922.533,-1.246c-35.518,-0 -66.726,-3.428 -93.624,-10.282c-26.898,-6.854 -51.875,-15.37 -74.93,-25.548l-0,-110.293l10.593,0c23.263,19.733 48.915,34.895 76.956,45.488c28.04,10.593 55.25,15.89 81.629,15.89c6.646,-0 15.422,-0.727 26.327,-2.181c10.904,-1.454 19.68,-3.739 26.326,-6.854c8.101,-3.531 14.955,-8.464 20.563,-14.799c5.609,-6.336 8.413,-14.696 8.413,-25.081c-0,-11.632 -4.57,-21.082 -13.709,-28.352c-9.139,-7.27 -20.044,-12.567 -32.714,-15.89c-15.786,-4.154 -32.662,-8.1 -50.629,-11.839c-17.966,-3.739 -34.739,-8.308 -50.317,-13.709c-35.933,-12.67 -61.689,-29.702 -77.267,-51.096c-15.578,-21.394 -23.367,-48.188 -23.367,-80.383c-0,-43.411 18.382,-78.565 55.146,-105.463c36.764,-26.898 82.668,-40.347 137.71,-40.347c27.625,-0 55.095,2.804 82.408,8.412c27.314,5.608 51.771,13.189 73.373,22.744l-0,105.931l-10.282,-0c-17.239,-14.748 -38.27,-27.21 -63.091,-37.388c-24.821,-10.177 -50.317,-15.266 -76.488,-15.266c-10.178,-0 -19.317,0.727 -27.417,2.181c-8.101,1.454 -16.617,4.258 -25.548,8.412c-7.27,3.323 -13.553,8.256 -18.85,14.799c-5.296,6.543 -7.945,13.864 -7.945,21.965c0,11.839 4.206,21.238 12.618,28.196c8.413,6.959 24.666,13.242 48.76,18.85c15.578,3.531 30.585,6.958 45.02,10.281c14.436,3.324 29.858,7.893 46.267,13.709c32.195,11.632 56.133,27.262 71.815,46.89c15.682,19.628 23.523,45.54 23.523,77.735c0,46.111 -18.122,83.186 -54.367,111.227c-36.245,28.04 -85.212,42.061 -146.902,42.061Zm-1370.87,-0c-35.518,-0 -66.726,-3.428 -93.624,-10.282c-26.899,-6.854 -51.875,-15.37 -74.931,-25.548l0,-110.293l10.593,0c23.263,19.733 48.915,34.895 76.956,45.488c28.04,10.593 55.25,15.89 81.629,15.89c6.646,-0 15.422,-0.727 26.327,-2.181c10.904,-1.454 19.68,-3.739 26.327,-6.854c8.1,-3.531 14.955,-8.464 20.563,-14.799c5.608,-6.336 8.412,-14.696 8.412,-25.081c-0,-11.632 -4.57,-21.082 -13.709,-28.352c-9.139,-7.27 -20.044,-12.567 -32.714,-15.89c-15.786,-4.154 -32.662,-8.1 -50.628,-11.839c-17.967,-3.739 -34.74,-8.308 -50.318,-13.709c-35.933,-12.67 -61.689,-29.702 -77.267,-51.096c-15.578,-21.394 -23.367,-48.188 -23.367,-80.383c0,-43.411 18.382,-78.565 55.146,-105.463c36.765,-26.898 82.668,-40.347 137.711,-40.347c27.625,-0 55.094,2.804 82.407,8.412c27.314,5.608 51.772,13.189 73.373,22.744l0,105.931l-10.281,-0c-17.24,-14.748 -38.27,-27.21 -63.092,-37.388c-24.821,-10.177 -50.317,-15.266 -76.488,-15.266c-10.177,-0 -19.317,0.727 -27.417,2.181c-8.101,1.454 -16.617,4.258 -25.548,8.412c-7.27,3.323 -13.553,8.256 -18.85,14.799c-5.296,6.543 -7.945,13.864 -7.945,21.965c0,11.839 4.207,21.238 12.619,28.196c8.412,6.959 24.665,13.242 48.759,18.85c15.578,3.531 30.585,6.958 45.021,10.281c14.435,3.324 29.858,7.893 46.267,13.709c32.194,11.632 56.132,27.262 71.814,46.89c15.682,19.628 23.523,45.54 23.523,77.735c0,46.111 -18.122,83.186 -54.367,111.227c-36.245,28.04 -85.212,42.061 -146.901,42.061Zm-177.59,-8.412l-142.072,-0l-129.298,-170.113l-41.749,0l-0,170.113l-115.901,-0l-0,-463.915l186.625,-0c25.756,-0 48.188,1.609 67.297,4.829c19.109,3.219 36.765,9.918 52.966,20.096c16.616,10.593 29.806,24.042 39.568,40.347c9.762,16.305 14.643,37.024 14.643,62.156c0,35.518 -7.996,64.338 -23.99,86.459c-15.993,22.12 -37.387,39.724 -64.181,52.809l156.092,197.219Zm1327.87,-0l-249.872,-0l-0,-81.006l66.674,-0l-0,-301.903l-66.674,-0l-0,-81.006l249.872,-0l0,81.006l-66.674,-0l-0,301.903l66.674,-0l0,81.006Zm791.054,-0l-309.692,-0l0,-463.915l116.524,-0l0,375.431l193.168,0l0,88.484Zm5.608,-0l156.716,-463.915l127.117,-0l156.715,463.915l-119.951,-0l-28.975,-94.715l-145.811,-0l-28.975,94.715l-116.836,-0Zm960.544,-0l-115.901,-0l0,-307.511l-84.433,198.464l-79.448,0l-84.433,-198.464l-0,307.511l-109.67,-0l0,-463.915l134.283,-0l102.815,228.997l102.504,-228.997l134.283,-0l-0,463.915Zm-694.47,-178.837l-47.358,-152.976l-47.357,152.976l94.715,0Zm-2578.17,-143.006c-0,-11.632 -2.233,-21.654 -6.699,-30.066c-4.465,-8.412 -11.891,-14.903 -22.276,-19.473c-7.27,-3.115 -15.371,-5.088 -24.302,-5.919c-8.932,-0.831 -20.044,-1.246 -33.337,-1.246l-38.945,-0l-0,124.936l33.337,-0c16.201,-0 29.962,-0.987 41.282,-2.96c11.32,-1.973 20.926,-6.18 28.819,-12.618c7.477,-5.816 13.034,-12.774 16.669,-20.875c3.634,-8.101 5.452,-18.694 5.452,-31.779Z" style="fill:#231f20;fill-rule:nonzero;"/></g></svg>